<?xml version="1.0" encoding="utf-8"?>
<!-- Generator: Adobe Illustrator 16.0.4, SVG Export Plug-In . SVG Version: 6.00 Build 0)  -->
<!DOCTYPE svg PUBLIC "-//W3C//DTD SVG 1.1//EN" "http://www.w3.org/Graphics/SVG/1.1/DTD/svg11.dtd">
<svg version="1.1" id="Layer_1" xmlns="http://www.w3.org/2000/svg" xmlns:xlink="http://www.w3.org/1999/xlink" x="0px" y="0px"
	 width="101px" height="359px" viewBox="0 0 101 359" enable-background="new 0 0 101 359" xml:space="preserve">
<g>
	<path fill="#FCB121" d="M16.16,8.343c-10.566,0-16,6.73-16,15.033c0,8.304,7.163,15.034,16,15.034c8.837,0,16-6.73,16-15.034
		C32.16,15.074,28.417,8.343,16.16,8.343z"/>
	<path fill="#FCB121" d="M16.16,0.191l-1.424,0.39c0.335,4.801,2.849,7.762,2.849,7.762C15.239,2.256,16.16,0.191,16.16,0.191z"/>
	<path fill="#FCB121" d="M29.336,2.083c-8.433-2.122-10.943,5.528-10.943,5.528C26.209,9.733,29.336,2.083,29.336,2.083z"/>
	<path fill="#FCB121" d="M15.821,7.611c0,0-2.512-7.65-10.943-5.528C4.878,2.083,8.005,9.733,15.821,7.611z"/>
</g>
<g>
	<g>
		<defs>
			<rect id="SVGID_1_" x="-2.354" y="305.812" width="53" height="53"/>
		</defs>
		<clipPath id="SVGID_2_">
			<use xlink:href="#SVGID_1_"  overflow="visible"/>
		</clipPath>
		<path clip-path="url(#SVGID_2_)" fill="#79A164" d="M48.589,324.785c-0.286-0.415-0.646-0.772-0.992-1.136
			c-0.139-0.145-0.323-0.298-0.389-0.494c-0.074-0.216-0.097-0.449-0.146-0.671c-0.094-0.439-0.26-0.848-0.616-1.139
			c-0.756-0.617-1.815-0.689-2.745-0.774c-0.528-0.049-1.062-0.091-1.578-0.214c-0.233-0.056-0.464-0.13-0.68-0.238
			c-0.109-0.054-0.275-0.125-0.281-0.269c-0.006-0.155,0.084-0.313,0.134-0.456c0.052-0.147,0.093-0.302,0.083-0.458
			c-0.022-0.389-0.387-0.584-0.713-0.705c-0.747-0.276-1.602-0.228-2.378-0.135c-0.765,0.092-1.517,0.26-2.264,0.442
			c-0.1,0.024-0.2,0.051-0.302,0.076c-0.028-0.063-0.058-0.125-0.089-0.186c-0.056-0.108-0.134-0.228-0.093-0.354
			c0.034-0.102,0.11-0.189,0.171-0.275c0.281-0.397,0.722-0.656,1.145-0.877c0.486-0.254,1.002-0.451,1.482-0.717
			c0.423-0.235,0.823-0.544,0.93-1.042c0.109-0.504-0.067-1.035-0.289-1.482c-0.118-0.237-0.26-0.462-0.372-0.701
			c-0.059-0.125-0.112-0.254-0.146-0.388c-0.015-0.059-0.027-0.12-0.036-0.181c-0.004-0.031-0.008-0.062-0.012-0.092
			c0-0.01,0-0.106-0.006-0.04c0.002-0.023,0-0.047,0.003-0.071c0.002,0.001,0.003,0.003,0.003,0.006
			c0.033-0.068,0.074-0.132,0.121-0.192c0.15-0.192,0.349-0.344,0.533-0.502c0.201-0.172,0.403-0.349,0.568-0.558
			c0.286-0.364,0.431-0.876,0.186-1.3c-0.442-0.764-1.445-0.847-2.235-0.835c-0.292,0.005-0.584,0.027-0.875,0.045
			c-0.15,0.008-0.303,0.02-0.455,0.016c-0.139-0.003-0.277-0.02-0.416-0.027c-0.555-0.029-1.081,0.062-1.596,0.269
			c-0.516,0.208-1,0.492-1.488,0.753c-0.254,0.136-0.509,0.27-0.766,0.4c-0.239,0.123-0.484,0.239-0.745,0.307
			c-0.238-0.03-0.473-0.171-0.689-0.265c-0.236-0.104-0.487-0.212-0.747-0.22c-0.251-0.008-0.492,0.069-0.713,0.184
			c-0.21,0.11-0.406,0.271-0.628,0.354c-0.194,0.008-0.382-0.045-0.574-0.062c-0.182-0.016-0.367-0.007-0.543,0.037
			c-0.25,0.065-0.458,0.241-0.646,0.411c-0.197,0.178-0.384,0.367-0.575,0.552c-0.395,0.38-0.796,0.761-1.25,1.073
			c-0.198,0.136-0.445,0.311-0.689,0.341c-0.239,0.03-0.51-0.106-0.732-0.184c-0.219-0.075-0.449-0.15-0.683-0.14
			c-0.251,0.011-0.458,0.152-0.652,0.3c-0.395,0.301-0.736,0.682-1.038,1.073c-0.295,0.382-0.554,0.792-0.777,1.22
			c-0.451,0.861-0.762,1.792-0.968,2.741c-0.023,0.111-0.041,0.222-0.062,0.333c-0.07-0.027-0.138-0.058-0.21-0.078
			c-0.267-0.077-0.544-0.121-0.82-0.155c-0.145-0.018-0.289-0.029-0.433-0.043c-0.094-0.009-0.228-0.018-0.309-0.039
			c-0.036-0.064-0.112-0.126-0.157-0.181c-0.07-0.085-0.142-0.169-0.22-0.245c-0.149-0.147-0.322-0.268-0.519-0.342
			c-0.411-0.157-0.806-0.028-1.189,0.146c-0.752,0.341-1.56,0.784-2.416,0.725c-0.131-0.009-0.259-0.032-0.371-0.105
			c-0.094-0.061-0.173-0.143-0.254-0.219c-0.179-0.166-0.382-0.303-0.605-0.402c-0.493-0.22-1.049-0.226-1.58-0.204
			c-1.087,0.045-2.174,0.276-3.194,0.654c-0.902,0.335-1.787,0.828-2.401,1.586c-0.593,0.73-0.835,1.698-0.704,2.625
			c0.066,0.464,0.221,0.92,0.472,1.317c0.141,0.224,0.31,0.428,0.496,0.617c-0.015,0.016-0.032,0.034-0.047,0.048
			c-0.142,0.143-0.275,0.294-0.396,0.455c-0.168,0.223-0.301,0.504-0.561,0.633c-0.19,0.094-0.407,0.139-0.613,0.182
			c-0.213,0.043-0.427,0.081-0.64,0.121c-0.323,0.062-0.646,0.13-0.96,0.229c-0.594,0.188-1.22,0.52-1.42,1.155
			c-0.111,0.353-0.089,0.767,0.042,1.112c0.118,0.31,0.35,0.548,0.647,0.692c0.679,0.329,1.453,0.183,2.167,0.346
			c0.427,0.099,0.705,0.432,0.902,0.804c0.177,0.333,0.394,0.593,0.748,0.748c0.455,0.198,0.968,0.178,1.457,0.174
			c-0.141,0.098-0.275,0.204-0.39,0.332c-0.247,0.278-0.388,0.62-0.487,0.975c-0.069,0.25-0.117,0.504-0.185,0.753
			c-0.044,0.17-0.094,0.39-0.245,0.499c-0.37,0.271-0.809,0.454-1.221,0.651c-0.34,0.165-0.721,0.323-1.016,0.556
			c-0.291,0.229-0.421,0.598-0.445,0.958c-0.032,0.495,0.13,1.06,0.559,1.35c0.27,0.196,0.647,0.251,0.967,0.283
			c0.347,0.036,0.696,0.038,1.044,0.031c0.161-0.002,0.326-0.016,0.487-0.006c-0.003,0.002-0.007,0.002-0.01,0
			c0.074,0.017,0.139,0.07,0.196,0.115c0.101,0.078,0.196,0.162,0.297,0.238c0.207,0.159,0.437,0.286,0.691,0.347
			c0.525,0.124,1.021-0.056,1.495-0.27c0.484-0.218,0.958-0.447,1.47-0.592c0.49-0.139,0.998-0.209,1.506-0.211
			c0.164-0.001,0.32,0.044,0.472,0.101c0.257,0.097,0.502,0.225,0.743,0.357c0.484,0.267,0.951,0.569,1.451,0.809
			c0.331,0.159,0.666,0.266,1.034,0.263c0.536-0.003,1.058-0.136,1.561-0.312c0.507-0.178,0.995-0.401,1.495-0.598
			c0.465-0.185,0.947-0.356,1.452-0.366c0.458-0.009,0.92,0.163,1.252,0.478c0.091,0.086,0.173,0.182,0.244,0.287
			c0.072,0.108,0.084,0.234,0.111,0.36c0.061,0.289,0.122,0.578,0.183,0.867c0.122,0.578,0.241,1.157,0.359,1.735
			c0.173,0.852,0.346,1.705,0.487,2.562c0.045,0.275,0.091,0.549,0.094,0.826c0.005,0.436-0.021,0.871-0.048,1.306l-0.2,2.42
			c-0.016,0.154-0.031,0.308-0.046,0.461c-0.122,1.173-0.268,2.343-0.445,3.509c-0.175,1.152-0.375,2.305-0.662,3.436
			c-0.131,0.515-0.271,1.051-0.508,1.528c-0.062,0.126-0.12,0.246-0.085,0.392c0.054,0.218,0.258,0.322,0.46,0.367
			c0.443,0.091,0.911,0.068,1.361,0.057c0.396-0.01,0.789-0.044,1.183-0.087c-0.016,0.084-0.032,0.168-0.047,0.252
			c-0.008,0.103-0.01,0.186,0.053,0.282c0.104,0.156,0.317,0.208,0.487,0.25c0.254,0.062,0.518,0.099,0.778,0.123
			c0.137,0.012,0.312,0.043,0.451,0.013c0.114-0.014,0.215-0.086,0.295-0.164c0.173-0.171,0.296-0.397,0.404-0.613
			c0.284,0.249,0.766,0.207,1.113,0.201c0.521-0.009,1.041,0.012,1.546-0.132c0.099-0.028,0.197-0.061,0.292-0.099
			c0.046-0.019,0.078,0.067,0.104,0.103c0.024,0.033,0.049,0.066,0.075,0.099c0.108,0.132,0.27,0.186,0.432,0.21
			c0.48,0.071,1.008-0.005,1.465-0.156c0.087-0.028,0.175-0.058,0.26-0.091c0.062-0.023,0.111-0.086,0.15-0.137
			c0.01-0.016,0.06-0.105,0.051-0.099c0.012-0.036,0.017-0.074,0.02-0.112c0.003-0.192-0.044-0.39-0.078-0.579
			c-0.051-0.284-0.104-0.567-0.161-0.851c-0.07-0.362-0.141-0.723-0.214-1.084c-0.1-0.494-0.199-0.988-0.3-1.483
			c-0.154-0.764-0.308-1.53-0.46-2.295c-0.085-0.422-0.169-0.843-0.254-1.263c-0.062-0.304-0.12-0.608-0.18-0.912
			c-0.057-0.291-0.113-0.583-0.168-0.873c-0.013-0.07-0.026-0.14-0.04-0.209c-0.007-0.035-0.014-0.07-0.021-0.105l-0.513-2.849
			c-0.048-0.292-0.093-0.582-0.137-0.875c-0.041-0.272-0.058-0.547-0.079-0.821c-0.057-0.73-0.109-1.459-0.156-2.189
			c-0.046-0.737-0.095-1.474-0.139-2.211c-0.051-0.869-0.103-1.738-0.155-2.606c0.518,0.19,0.946,0.621,1.344,0.988
			c0.385,0.356,0.771,0.755,1.239,1.003c0.167,0.089,0.34,0.143,0.527,0.164c0.508,0.057,1.019-0.01,1.52-0.09
			c0.37-0.059,0.751-0.151,1.128-0.12c0.424,0.035,0.833,0.317,1.17,0.556c0.367,0.262,0.711,0.567,1.104,0.79
			c0.22,0.125,0.476,0.221,0.733,0.175c0.312-0.056,0.585-0.28,0.784-0.528c0.155-0.195,0.279-0.41,0.418-0.616
			c0.065-0.096,0.138-0.214,0.246-0.267c0.372-0.182,0.802-0.242,1.209-0.287c0.037-0.004,0.074-0.005,0.11-0.006
			c0.18,0.15,0.358,0.302,0.541,0.447c0.409,0.324,0.852,0.664,1.364,0.803c0.481,0.132,0.966,0,1.297-0.378
			c0.325-0.367,0.419-0.848,0.327-1.321c-0.099-0.505-0.361-0.966-0.62-1.405c-0.248-0.42-0.569-0.86-0.658-1.348
			c-0.05-0.327,0.156-0.698,0.125-1.051c-0.027-0.327-0.214-0.626-0.4-0.886c-0.314-0.435-0.707-0.812-1.108-1.166
			c-0.363-0.318-0.743-0.617-1.135-0.899c0.027-0.018,0.053-0.036,0.08-0.054c0.187-0.116,0.379-0.224,0.579-0.321
			c0.7-0.339,1.438-0.482,2.207-0.552c0.956-0.087,1.962-0.208,2.718-0.864c0.405-0.353,0.723-0.796,1.067-1.207
			c0.131-0.156,0.273-0.356,0.452-0.46c0.179-0.105,0.389-0.163,0.587-0.224c0.46-0.142,0.931-0.255,1.376-0.44
			c0.332-0.138,0.719-0.341,0.843-0.706C49.034,325.523,48.808,325.101,48.589,324.785 M27.572,311.513c0.002,0,0.001,0,0.002,0
			c-0.001,0-0.004,0.001-0.018,0.006C27.562,311.518,27.567,311.515,27.572,311.513 M19.125,336.958h0.003
			C19.108,336.958,19.127,336.958,19.125,336.958 M28.182,347.873c-0.009,0.03,0.017,0.097,0.021,0.126
			c0.012,0.065,0.023,0.129,0.034,0.194c0.198,1.142,0.445,2.278,0.674,3.414c0.147,0.738,0.295,1.476,0.445,2.214
			c0.087,0.432,0.175,0.864,0.261,1.295c0.116,0.578,0.231,1.155,0.337,1.733c0.012,0.065,0.023,0.131,0.034,0.197
			c0.005,0.032,0.01,0.064,0.016,0.096c-0.03,0.009-0.062,0.018-0.091,0.025c-0.137,0.036-0.276,0.062-0.417,0.078
			c-0.13,0.015-0.262,0.023-0.393,0.019c-0.058-0.002-0.116-0.006-0.173-0.015c-0.046-0.058-0.094-0.112-0.144-0.167
			c-0.404-0.445-0.707-0.98-0.958-1.523c-0.348-0.751-0.616-1.55-0.795-2.358c0.067,1.246,0.31,2.534,0.834,3.672
			c-0.257,0.048-0.518,0.078-0.78,0.081c-0.226,0.002-0.437-0.035-0.658-0.076c-0.175-0.032-0.302-0.163-0.382-0.316
			c-0.233-0.433-0.229-0.997-0.219-1.476c0.012-0.63,0.081-1.265,0.194-1.885c-0.328,0.955-0.502,1.957-0.817,2.917
			c-0.171,0.516-0.366,1.071-0.69,1.514c-0.013,0.019-0.063,0.104-0.088,0.104c-0.057-0.002-0.115-0.006-0.171-0.012
			c-0.147-0.013-0.296-0.029-0.443-0.051c-0.064-0.009-0.128-0.02-0.193-0.032c-0.031-0.005-0.062-0.012-0.093-0.018
			c-0.035-0.008-0.062,0.002-0.056-0.039c0.009-0.055,0.02-0.11,0.026-0.166c0.097-0.824,0.035-1.683-0.127-2.494
			c-0.084-0.424-0.2-0.84-0.342-1.248c-0.103-0.292-0.217-0.583-0.368-0.854c0.191,0.812,0.328,1.656,0.343,2.491
			c0.004,0.262-0.004,0.527-0.05,0.785c-0.035,0.193-0.093,0.4-0.222,0.555c-0.165,0.197-0.398,0.185-0.638,0.19
			c-0.322,0.008-0.647-0.004-0.969-0.011c-0.14-0.003-0.281-0.008-0.419-0.021c0.225-0.532,0.383-1.09,0.525-1.649
			c0.144-0.565,0.266-1.137,0.377-1.71c0.224-1.159,0.405-2.326,0.563-3.496c0.079-0.586,0.15-1.171,0.216-1.759
			c0.007-0.064,0.015-0.122,0.021-0.185l0.277-3.316c0.019-0.396,0.036-0.8-0.026-1.194c-0.16-1.142-0.396-2.275-0.621-3.405
			c-0.114-0.575-0.23-1.149-0.349-1.724c-0.011-0.06-0.021-0.122-0.033-0.182c-0.017-0.084-0.04-0.166-0.057-0.249
			c-0.028-0.133-0.055-0.267-0.083-0.4c-0.003-0.014-0.012-0.029-0.018-0.045c-0.157-0.694-0.337-1.384-0.573-2.055
			c-0.055-0.157-0.123-0.309-0.184-0.464c0.251-1.04,0.617-1.842,0.87-1.862c0.303-0.023,1.141,1.131,1.887,2.216
			c-0.007-0.015-0.013-0.022-0.009-0.012c0.783,2.192,1.544,4.401,2.123,6.657c-0.07-0.357-0.124-0.59-0.155-0.718
			c-0.154-0.718-0.323-1.432-0.506-2.142c0.017-0.282,0.034-0.564,0.051-0.847c0.065-1.114,0.131-2.23,0.197-3.345
			c0.034-0.588,0.069-1.177,0.104-1.766c0.003,0.001,0.006-0.002,0.009-0.001c0.176,0.048,0.319,0.283,0.419,0.42
			c0.323,0.438,0.643,0.89,0.917,1.36c0.115,0.199,0.224,0.402,0.328,0.605c0.043,0.79,0.087,1.58,0.13,2.371
			c0.041,0.743,0.081,1.487,0.125,2.23c0.072,1.206,0.151,2.411,0.249,3.617c0.016,0.195,0.046,0.388,0.075,0.58
			C27.558,344.37,28.182,347.873,28.182,347.873 M48.222,325.696c-0.041,0.098-0.188,0.157-0.276,0.198
			c-0.322,0.152-0.671,0.251-1.013,0.352c-0.427,0.125-0.912,0.223-1.284,0.481c-0.19,0.132-0.347,0.321-0.497,0.496
			c-0.177,0.208-0.346,0.422-0.521,0.631c-0.16,0.192-0.323,0.383-0.51,0.548c-0.179,0.158-0.393,0.274-0.61,0.369
			c-0.44,0.192-0.915,0.26-1.39,0.306c-0.732,0.069-1.456,0.14-2.156,0.387c-0.447,0.159-0.874,0.374-1.275,0.625
			c-0.113,0.07-0.223,0.144-0.332,0.22c-0.778-0.506-1.603-0.95-2.468-1.278c0.61,0.569,1.268,1.086,1.92,1.605
			c0.347,0.277,0.694,0.554,1.042,0.831c0.419,0.334,0.826,0.685,1.201,1.067c0.312,0.317,0.679,0.715,0.823,1.114
			c0.053,0.145,0.003,0.295-0.037,0.436c-0.062,0.229-0.108,0.459-0.089,0.697c0.029,0.354,0.178,0.691,0.339,1.003
			c0.229,0.444,0.504,0.864,0.713,1.319c0.166,0.357,0.337,0.82,0.051,1.161c-0.108,0.121-0.237,0.176-0.402,0.145
			c-0.22-0.044-0.424-0.171-0.606-0.295c-0.423-0.285-0.801-0.631-1.192-0.957c-0.407-0.339-0.841-0.697-1.345-0.881
			c-0.522-0.193-1.099-0.249-1.651-0.292c-0.564-0.043-1.134-0.059-1.697-0.128c-0.358-0.043-0.759-0.091-1.087-0.255
			c-0.2-0.08-0.34-0.305-0.435-0.486c-0.117-0.219-0.198-0.454-0.31-0.675c-0.165-0.329-0.404-0.578-0.771-0.635
			c-0.323-0.049-0.656,0.036-0.974,0.091c-0.186,0.033-0.373,0.059-0.562,0.062c-0.134,0.003-0.267-0.006-0.399-0.03
			c-0.048-0.009-0.094-0.02-0.141-0.033c-0.006-0.001-0.052-0.015-0.023-0.005c-0.056-0.019-0.111-0.038-0.166-0.06
			c-0.371-0.146-0.68-0.417-0.982-0.667c-0.332-0.276-0.867-0.447-1.23-0.121c-0.099,0.088-0.149,0.2-0.203,0.316
			c-0.085,0.187-0.164,0.375-0.23,0.571c-0.094,0.281-0.174,0.567-0.234,0.857c-0.368-0.551-0.764-1.081-1.195-1.585
			c-0.236-0.276-0.612-0.625-0.988-0.378c-0.216,0.141-0.333,0.401-0.459,0.619c-0.154,0.266-0.308,0.531-0.464,0.795
			c-0.133,0.223-0.267,0.444-0.399,0.665c-0.087-0.146-0.183-0.289-0.273-0.431c-0.149-0.238-0.302-0.472-0.463-0.702
			c-0.161-0.23-0.326-0.457-0.509-0.669c-0.15-0.174-0.323-0.343-0.536-0.438c-0.208-0.094-0.434-0.074-0.621,0.061
			c-0.166,0.119-0.274,0.3-0.368,0.478c-0.115,0.221-0.227,0.443-0.338,0.666c-0.035,0.071-0.071,0.144-0.104,0.216
			c-0.017,0.036-0.035,0.092-0.074,0.111c-0.019,0.009-0.044-0.002-0.07-0.021c-0.001-0.002-0.002-0.004-0.004-0.006
			c0,0,0,0.001,0,0.002c-0.069-0.048-0.151-0.15-0.184-0.179c-0.2-0.177-0.418-0.316-0.672-0.403
			c-0.265-0.093-0.543-0.145-0.821-0.183c-0.27-0.037-0.542-0.057-0.811-0.099c-0.138-0.021-0.274-0.048-0.407-0.088
			c-0.061-0.018-0.122-0.039-0.183-0.062c-0.029-0.013-0.06-0.025-0.088-0.039c-0.001,0-0.031-0.016-0.047-0.022
			c-0.12-0.075-0.181-0.221-0.225-0.349c-0.049-0.139-0.08-0.282-0.109-0.426c-0.06-0.31-0.096-0.624-0.154-0.935
			c-0.051-0.278-0.113-0.569-0.261-0.815c-0.144-0.239-0.384-0.406-0.624-0.54c-0.479-0.269-1.013-0.429-1.542-0.574
			c-0.563-0.153-1.132-0.287-1.702-0.422c-0.56-0.133-1.121-0.264-1.671-0.433c-0.021-0.007-0.042-0.014-0.063-0.021
			c-0.037-0.018-0.075-0.033-0.116-0.038c-0.208-0.067-0.416-0.138-0.615-0.228c-0.131-0.059-0.261-0.124-0.382-0.203
			c-0.05-0.034-0.099-0.07-0.145-0.111c-0.008-0.006-0.08-0.078-0.049-0.042c-0.344-0.414-0.4-0.916-0.452-1.432
			c-0.024-0.25-0.056-0.503-0.142-0.741c-0.095-0.255-0.243-0.453-0.48-0.59c-0.446-0.266-0.954-0.417-1.421-0.637
			c-0.409-0.191-0.81-0.408-1.172-0.68c-0.357-0.269-0.675-0.597-0.896-0.989c-0.259-0.461-0.395-1.036-0.331-1.565
			c-0.007,0.049,0.007-0.059,0.007-0.053c0.002-0.022,0.005-0.044,0.007-0.066c0.007-0.054,0.014-0.109,0.022-0.164
			c0.017-0.109,0.045-0.214,0.081-0.318c0.065-0.187,0.145-0.369,0.247-0.539c0.487-0.818,1.389-1.324,2.256-1.647
			c1.006-0.377,2.093-0.591,3.167-0.63c0.494-0.018,1.035,0.005,1.432,0.337c0.199,0.167,0.369,0.353,0.61,0.462
			c0.231,0.105,0.482,0.136,0.734,0.135c0.553-0.003,1.093-0.15,1.603-0.356c0.263-0.106,0.521-0.227,0.778-0.345
			c0.134-0.062,0.267-0.125,0.405-0.176c0.092-0.034,0.204-0.088,0.304-0.07c0.019,0.005,0.059,0.014,0.065,0.016
			c0.025,0.008,0.049,0.018,0.073,0.028c0.047,0.021,0.092,0.045,0.133,0.074c0.09,0.063,0.167,0.142,0.24,0.225
			c0.15,0.171,0.279,0.364,0.5,0.449c0.228,0.086,0.496,0.084,0.736,0.106c0.265,0.025,0.531,0.053,0.79,0.122
			c0.126,0.034,0.258,0.075,0.373,0.139c0.007,0.003,0.009,0.009,0.016,0.013c-0.246,1.781-0.165,3.604,0.14,5.372
			c-0.093-0.165-0.192-0.326-0.299-0.48c-0.281-0.407-0.613-0.778-0.912-1.171c-0.25-0.319-0.431-0.673-0.571-1.051
			c0.107,0.323,0.242,0.616,0.425,0.904c0.231,0.347,0.486,0.676,0.733,1.012c0.242,0.329,0.461,0.674,0.627,1.047
			c0.042,0.096,0.068,0.193,0.101,0.291c0.069,0.349,0.142,0.696,0.223,1.043c0,0.017,0.003,0.033,0.004,0.05
			c0,0.008,0,0.021-0.001,0.037c-0.379-0.41-0.766-0.791-1.25-1.232c-0.846-0.77-1.748-1.495-2.719-2.103
			c-0.511-0.319-1.03-0.624-1.575-0.886c-0.398-0.191-0.804-0.361-1.215-0.524c0.843,0.401,1.667,0.837,2.445,1.354
			c0.846,0.562,1.649,1.18,2.421,1.84c-0.011,0.008-0.023,0.017-0.033,0.023c-0.165,0.102-0.337,0.193-0.513,0.274
			c-0.391,0.181-0.799,0.312-1.221,0.396c-0.413,0.083-0.85,0.101-1.267,0.048c-0.36-0.044-0.693-0.14-1.036-0.258
			c0.307,0.12,0.611,0.233,0.937,0.287c0.392,0.065,0.781,0.08,1.177,0.042c0.733-0.073,1.468-0.313,2.1-0.693
			c0.05,0.043,0.103,0.081,0.151,0.125c0.65,0.574,1.163,1.061,1.69,1.615c0.12,0.492,0.247,0.981,0.378,1.469
			c0.303,1.119,0.626,2.237,1.021,3.327c-0.093-0.868-0.235-1.73-0.372-2.591c-0.139-0.873-0.284-1.746-0.438-2.617
			c-0.2-1.141-0.399-2.272-0.471-3.429c-0.071-1.162-0.045-2.331,0.133-3.481c0.169-1.091,0.474-2.167,0.964-3.159
			c0.239-0.481,0.519-0.948,0.853-1.371c0.291-0.369,0.631-0.764,1.046-1.001c0.09-0.003,0.182,0.042,0.265,0.07
			c0.115,0.038,0.229,0.08,0.344,0.116c0.24,0.079,0.489,0.147,0.744,0.143c0.463-0.008,0.892-0.28,1.26-0.536
			c0.396-0.275,0.761-0.596,1.109-0.929c0.175-0.167,0.342-0.34,0.518-0.505c0.084-0.08,0.169-0.157,0.258-0.231
			c0.047-0.041,0.097-0.08,0.146-0.117c0.024-0.02,0.05-0.038,0.075-0.056c0.016-0.009,0.022-0.014,0.024-0.016
			c0.019-0.004,0.046-0.009,0.051-0.01c0.033-0.003,0.066-0.006,0.099-0.005c0.055,0,0.109,0.005,0.165,0.013
			c0.108,0.015,0.216,0.042,0.325,0.055c0.206,0.025,0.417,0.013,0.611-0.064c0.169-0.068,0.322-0.171,0.478-0.265
			c0.074-0.045,0.149-0.088,0.228-0.126c0.039-0.017,0.079-0.034,0.119-0.049c0.024-0.008,0.049-0.017,0.074-0.023
			c0.015-0.002,0.022-0.004,0.025-0.005c0.014,0.004,0.031,0.005,0.047,0.005c0.252,0.08,0.491,0.197,0.736,0.297
			c0.241,0.1,0.507,0.205,0.773,0.186c0.27-0.02,0.525-0.129,0.766-0.244c0.258-0.124,0.512-0.255,0.763-0.392
			c0.496-0.269,0.986-0.547,1.496-0.787c0.245-0.115,0.499-0.219,0.765-0.279c0.269-0.062,0.535-0.066,0.808-0.043
			c0.574,0.047,1.142-0.037,1.714-0.053c0.281-0.006,0.569-0.001,0.845,0.053c0.223,0.043,0.446,0.12,0.58,0.313
			c-0.001,0.005,0.016,0.051,0.017,0.065c0.002,0.024,0.001,0.048-0.003,0.071c-0.01,0.049-0.033,0.095-0.06,0.137
			c-0.056,0.087-0.131,0.161-0.205,0.233c-0.161,0.16-0.334,0.304-0.504,0.456c-0.348,0.309-0.707,0.678-0.723,1.172
			c-0.016,0.505,0.208,0.98,0.448,1.41c0.119,0.215,0.249,0.426,0.347,0.652c0.103,0.24,0.137,0.469,0.119,0.728
			c-0.006,0.017-0.023,0.063-0.027,0.073c-0.016,0.036-0.037,0.069-0.06,0.1c-0.046,0.058-0.101,0.107-0.158,0.151
			c-0.126,0.097-0.269,0.171-0.408,0.246c-0.869,0.467-1.832,0.795-2.518,1.54c-0.337,0.366-0.644,0.834-0.461,1.348
			c0.085,0.239,0.247,0.449,0.299,0.7c0.04,0.193,0.009,0.433-0.042,0.592c-0.329,0.873-0.927,1.619-1.56,2.292
			c-0.687,0.731-1.448,1.377-2.217,2.018c1.113-0.559,2.159-1.25,3.051-2.124c0.383-0.375,0.731-0.786,1.021-1.237
			c0.268-0.417,0.48-0.901,0.477-1.406c0.099-0.023,0.199-0.044,0.297-0.069c0.634-0.155,1.27-0.303,1.914-0.411
			c0.359-0.061,0.722-0.109,1.086-0.13c0.301-0.018,0.612-0.021,0.909,0.041c0.194,0.041,0.435,0.119,0.539,0.305
			c0.106,0.19-0.044,0.455-0.1,0.639c-0.084,0.286-0.066,0.562,0.156,0.783c0.166,0.165,0.384,0.271,0.596,0.36
			c0.238,0.101,0.485,0.176,0.738,0.234c1.02,0.235,2.089,0.175,3.105,0.435c0.381,0.098,0.861,0.268,1.071,0.629
			c0.248,0.426,0.192,0.958,0.397,1.401c0.09,0.193,0.241,0.349,0.384,0.503c0.14,0.15,0.285,0.296,0.426,0.445
			c0.257,0.275,0.524,0.561,0.718,0.886C48.159,325.436,48.263,325.598,48.222,325.696"/>
	</g>
	<g>
		<defs>
			<rect id="SVGID_3_" x="-2.354" y="305.812" width="53" height="53"/>
		</defs>
		<clipPath id="SVGID_4_">
			<use xlink:href="#SVGID_3_"  overflow="visible"/>
		</clipPath>
		<path clip-path="url(#SVGID_4_)" fill="#010101" d="M22.802,357.218c0-0.002,0.001-0.005,0.001-0.007
			c0.001-0.003,0-0.005,0.001-0.009C22.803,357.208,22.803,357.213,22.802,357.218"/>
	</g>
	<g>
		<defs>
			<rect id="SVGID_5_" x="-2.354" y="305.812" width="53" height="53"/>
		</defs>
		<clipPath id="SVGID_6_">
			<use xlink:href="#SVGID_5_"  overflow="visible"/>
		</clipPath>
		<polyline clip-path="url(#SVGID_6_)" fill="#010101" points="24.58,357.879 24.573,357.879 24.573,357.879 24.58,357.879 		"/>
	</g>
	<g>
		<defs>
			<rect id="SVGID_7_" x="-2.354" y="305.812" width="53" height="53"/>
		</defs>
		<clipPath id="SVGID_8_">
			<use xlink:href="#SVGID_7_"  overflow="visible"/>
		</clipPath>
		<path clip-path="url(#SVGID_8_)" fill="#79A164" d="M39.62,324.123c-0.975,0.054-1.952,0.165-2.923,0.323
			c0.093-0.099,0.2-0.188,0.312-0.262c0.269-0.18,0.574-0.319,0.882-0.414c0.595-0.183,1.198-0.268,1.816-0.32
			c-0.601,0.021-1.192,0.064-1.778,0.212c-0.276,0.069-0.538,0.167-0.794,0.287c-0.25,0.115-0.526,0.289-0.69,0.515
			c-0.004,0.005,0,0.013-0.001,0.018c-1.047,0.182-2.081,0.428-3.089,0.747c0.636-0.138,1.275-0.265,1.914-0.382
			c0.022,0.036,0.049,0.072,0.07,0.098c0.066,0.077,0.137,0.147,0.219,0.208c0.16,0.115,0.342,0.192,0.531,0.246
			c0.412,0.115,0.847,0.131,1.272,0.136c0.746,0.005,1.496-0.038,2.239,0.049c-0.063-0.011-0.127-0.02-0.191-0.027
			c-0.78-0.105-1.573-0.069-2.356-0.131c-0.39-0.032-0.813-0.079-1.167-0.26c-0.168-0.08-0.304-0.194-0.419-0.34
			c-0.004-0.005-0.004-0.005-0.007-0.011c0.441-0.078,0.881-0.156,1.324-0.218c1.146-0.16,2.294-0.289,3.451-0.343
			c0.548-0.024,1.094-0.029,1.642-0.015c0.414,0.01,0.825,0.041,1.238,0.069c-0.521-0.079-1.038-0.143-1.564-0.183
			C40.912,324.079,40.259,324.087,39.62,324.123"/>
	</g>
	<g>
		<defs>
			<rect id="SVGID_9_" x="-2.354" y="305.812" width="53" height="53"/>
		</defs>
		<clipPath id="SVGID_10_">
			<use xlink:href="#SVGID_9_"  overflow="visible"/>
		</clipPath>
		<path clip-path="url(#SVGID_10_)" fill="#79A164" d="M32.288,329.945c0.612,0.357,1.218,0.728,1.824,1.094
			c-0.002,0.014-0.004,0.028-0.006,0.04c-0.034,0.166-0.052,0.336-0.064,0.505c-0.028,0.41-0.007,0.823,0.064,1.227
			c0.055,0.305,0.138,0.618,0.268,0.898c0.146,0.307,0.314,0.581,0.515,0.855c-0.163-0.246-0.31-0.49-0.423-0.762
			c-0.113-0.272-0.192-0.557-0.241-0.847c-0.097-0.597-0.091-1.227,0.052-1.817c0.268,0.163,0.539,0.317,0.804,0.483
			c0.973,0.605,1.937,1.227,2.862,1.902c0.446,0.327,0.9,0.655,1.317,1.02c0.202,0.176,0.409,0.345,0.602,0.531
			c0.114,0.11,0.229,0.218,0.343,0.327c-0.338-0.387-0.689-0.766-1.078-1.102c-0.485-0.42-0.98-0.818-1.496-1.198
			c-0.334-0.247-0.682-0.476-1.028-0.706c0.005-0.004,0.011-0.01,0.016-0.014c0.141-0.096,0.302-0.149,0.468-0.178
			c0.339-0.061,0.675,0.024,0.994,0.131c-0.489-0.223-1.152-0.393-1.628-0.042c-0.56-0.367-1.128-0.721-1.706-1.054
			C33.945,330.776,33.131,330.327,32.288,329.945"/>
	</g>
	<g>
		<defs>
			<rect id="SVGID_11_" x="-2.354" y="305.812" width="53" height="53"/>
		</defs>
		<clipPath id="SVGID_12_">
			<use xlink:href="#SVGID_11_"  overflow="visible"/>
		</clipPath>
		<path clip-path="url(#SVGID_12_)" fill="#010101" d="M29.95,321.262c-0.01,0.016-0.015,0.024,0.001-0.002
			c0.051-0.088,0.102-0.177,0.153-0.264c-0.05,0.091-0.106,0.18-0.157,0.271C29.948,321.265,29.949,321.263,29.95,321.262"/>
	</g>
	<g>
		<defs>
			<rect id="SVGID_13_" x="-2.354" y="305.812" width="53" height="53"/>
		</defs>
		<clipPath id="SVGID_14_">
			<use xlink:href="#SVGID_13_"  overflow="visible"/>
		</clipPath>
		<path clip-path="url(#SVGID_14_)" fill="#79A164" d="M25.616,325.521c-0.078,0.042-0.158,0.08-0.236,0.119
			c-0.019,0.008-0.079,0.029-0.13,0.051c0.489-1.573,1.128-3.104,1.828-4.589c0.488-1.036,1.006-2.056,1.547-3.066
			c0.423-0.789,0.867-1.567,1.302-2.35c-0.26,0.413-0.519,0.826-0.776,1.24c-0.59,0.946-1.125,1.927-1.639,2.916
			c-0.372,0.718-0.717,1.454-1.043,2.198c-0.318-0.66-0.448-1.415-0.48-2.14c-0.021-0.488,0.032-0.969,0.105-1.451
			c0.049-0.387,0.182-0.767,0.294-1.139c-0.134,0.393-0.27,0.785-0.347,1.193c-0.096,0.51-0.148,1.015-0.144,1.535
			c0.003,0.356,0.046,0.713,0.112,1.064c0.044,0.239,0.105,0.475,0.184,0.705c0.036,0.109,0.075,0.217,0.121,0.322
			c0.015,0.036,0.033,0.089,0.057,0.135c-0.098,0.229-0.204,0.454-0.295,0.684c-0.412,1.045-0.789,2.094-1.081,3.179
			c-0.139,0.517-0.25,1.036-0.343,1.562c-0.08,0.446-0.141,0.913-0.128,1.367c0.017-0.521,0.125-1.049,0.239-1.557
			c0.118-0.529,0.259-1.052,0.415-1.572c0.053-0.021,0.105-0.051,0.151-0.073c0.114-0.055,0.227-0.113,0.337-0.175
			c0.225-0.124,0.447-0.257,0.66-0.401c0.446-0.303,0.866-0.633,1.271-0.99c0.728-0.639,1.38-1.408,1.894-2.228
			c0.163-0.26,0.31-0.528,0.459-0.795C28.917,323.048,27.438,324.547,25.616,325.521"/>
	</g>
	<g>
		<defs>
			<rect id="SVGID_15_" x="-2.354" y="305.812" width="53" height="53"/>
		</defs>
		<clipPath id="SVGID_16_">
			<use xlink:href="#SVGID_15_"  overflow="visible"/>
		</clipPath>
		<path clip-path="url(#SVGID_16_)" fill="#010101" d="M39.408,325.557C39.53,325.572,39.286,325.54,39.408,325.557"/>
	</g>
</g>
<g>
	<g>
		<path fill="#FDF494" d="M37.103,173.636c-0.458,0.138-1.512,0.504-2.198,0.732c-1.421,0.504-2.337,0.826-2.75,0.826
			c-0.366,0-0.503-0.229-0.549-0.321c-0.184-0.457,0.138-0.779,2.428-2.382c0.687-0.458,1.649-1.145,1.969-1.465
			c-1.191-2.383-2.885-4.489-4.947-6.185c0,0,0,0-0.046,0c-0.091,0-0.229,0.046-0.413,0.046c-0.411,0.092-0.87,0.137-1.144-0.09
			c-0.322-0.23-0.367-0.642-0.367-1.008c0-0.138-0.046-0.321-0.046-0.413c-1.603-0.962-3.298-1.741-5.084-2.198
			c-0.184,0.457-0.412,1.373-0.642,2.06c-0.779,2.565-0.824,2.794-1.282,2.794H21.94c-0.549-0.09-0.503-0.55-0.32-3.114
			c0.045-0.733,0.137-1.74,0.137-2.198c-1.007-0.138-1.877-0.184-2.793-0.184c-2.107,0-4.169,0.366-6.184,1.007
			c0,0.458,0.229,1.695,0.411,2.52c0.505,2.428,0.596,3.206,0.046,3.482l-0.092,0.045h-0.091c-0.412,0-0.596-0.275-1.97-2.657
			c-0.412-0.732-0.962-1.695-1.236-2.061c-3.619,1.969-6.55,5.131-8.245,8.886c0.138,0.137,0.413,0.366,0.55,0.504
			c0.687,0.595,1.1,0.915,0.916,1.328c-0.045,0.092-0.182,0.32-0.549,0.32c-0.229,0-0.595-0.091-1.007-0.183
			c-0.229-0.046-0.458-0.092-0.641-0.138C0.32,175.469,0,177.484,0,179.5c0,1.236,0.138,2.474,0.367,3.665
			c0.458-0.047,1.328-0.138,2.198-0.275c1.054-0.137,2.016-0.275,2.474-0.275c0.367,0,0.596,0.138,0.642,0.367
			c0.138,0.55-0.412,0.778-2.703,1.603c-0.641,0.229-1.603,0.596-2.015,0.779c1.145,3.482,3.206,6.504,6.092,8.794
			c0.091-0.045,0.229-0.092,0.367-0.138c0.458-0.183,0.87-0.32,1.19-0.091c0.321,0.229,0.275,0.687,0.183,1.145
			c-0.091,0.137-0.091,0.274-0.091,0.366c0.778,0.504,1.604,0.962,2.428,1.328c0.274,0.138,0.595,0.276,0.87,0.368
			c0.275,0.091,0.504,0.183,0.779,0.274c2.014,0.687,4.076,1.054,6.229,1.054c2.886,0,5.635-0.642,8.245-1.879
			c-0.138-0.458-0.458-1.375-0.687-2.016c-0.871-2.29-1.008-2.748-0.55-3.023l0.091-0.045h0.137c0.366,0,0.596,0.229,1.97,2.198
			c0.412,0.55,0.962,1.329,1.237,1.695c3.664-2.428,6.412-6,7.695-10.214c-0.092-0.138-0.32-0.322-0.504-0.413
			c-0.503-0.412-0.962-0.78-0.824-1.237c0.091-0.458,0.687-0.55,1.328-0.688c0.183-0.046,0.458-0.09,0.596-0.136
			c0.183-1.055,0.274-2.109,0.274-3.161C38.019,177.529,37.698,175.561,37.103,173.636z M18.964,186.049
			c-1.237,0-2.428-0.32-3.436-0.961c-0.138,0.092-0.321,0.182-0.458,0.274c-0.55,0.366-0.779,0.503-1.007,0.503h-0.138l-0.138-0.091
			c-0.413-0.32-0.137-0.825,0.138-1.375c0.045-0.138,0.138-0.32,0.229-0.458c-1.1-1.189-1.696-2.748-1.696-4.396
			c0-1.054,0.276-2.107,0.779-3.07c-0.046-0.092-0.092-0.274-0.138-0.366c-0.183-0.458-0.274-0.779-0.091-1.053
			c0.046-0.092,0.229-0.275,0.549-0.275c0.184,0,0.367,0.046,0.55,0.138c0.046,0,0.137,0.046,0.229,0.046
			c1.236-1.283,2.931-2.016,4.718-2.016c0.961,0,1.924,0.229,2.793,0.641c0.092,0.046,0.276,0.046,0.458,0.046
			c0.321,0,0.687,0.046,0.963,0.229c0.274,0.229,0.411,0.55,0.503,0.871c0.046,0.137,0.091,0.32,0.184,0.412
			c1.099,1.191,1.695,2.749,1.695,4.397C25.513,183.118,22.583,186.049,18.964,186.049z"/>
	</g>
</g>
</svg>
