<?xml version="1.0" encoding="utf-8"?>
<!-- Generator: Adobe Illustrator 16.0.4, SVG Export Plug-In . SVG Version: 6.00 Build 0)  -->
<!DOCTYPE svg PUBLIC "-//W3C//DTD SVG 1.1//EN" "http://www.w3.org/Graphics/SVG/1.1/DTD/svg11.dtd">
<svg version="1.1" id="Layer_1" xmlns="http://www.w3.org/2000/svg" xmlns:xlink="http://www.w3.org/1999/xlink" x="0px" y="0px"
	 width="101px" height="359px" viewBox="0 0 101 359" enable-background="new 0 0 101 359" xml:space="preserve">
<g>
	<path fill="#FCB121" d="M16.16,8.343c-10.566,0-16,6.73-16,15.033c0,8.304,7.163,15.034,16,15.034s16-6.73,16-15.034
		C32.16,15.074,28.417,8.343,16.16,8.343z"/>
	<path fill="#FCB121" d="M16.16,0.191l-1.424,0.39c0.335,4.801,2.849,7.762,2.849,7.762C15.239,2.256,16.16,0.191,16.16,0.191z"/>
	<path fill="#FCB121" d="M29.336,2.083c-8.433-2.122-10.943,5.528-10.943,5.528C26.209,9.733,29.336,2.083,29.336,2.083z"/>
	<path fill="#FCB121" d="M15.821,7.611c0,0-2.512-7.65-10.943-5.528C4.878,2.083,8.005,9.733,15.821,7.611z"/>
</g>
<g>
	<g>
		<path fill="#FDF494" d="M37.103,173.636c-0.458,0.138-1.512,0.504-2.198,0.732c-1.421,0.504-2.337,0.826-2.75,0.826
			c-0.366,0-0.503-0.229-0.549-0.321c-0.184-0.457,0.138-0.779,2.428-2.382c0.687-0.458,1.649-1.145,1.969-1.465
			c-1.191-2.383-2.885-4.489-4.947-6.185c0,0,0,0-0.046,0c-0.091,0-0.229,0.046-0.413,0.046c-0.411,0.092-0.87,0.137-1.144-0.09
			c-0.322-0.23-0.367-0.642-0.367-1.008c0-0.138-0.046-0.321-0.046-0.413c-1.603-0.962-3.298-1.741-5.084-2.198
			c-0.184,0.457-0.412,1.373-0.642,2.06c-0.779,2.565-0.824,2.794-1.282,2.794H21.94c-0.549-0.09-0.503-0.55-0.32-3.114
			c0.045-0.733,0.137-1.74,0.137-2.198c-1.007-0.138-1.877-0.184-2.793-0.184c-2.107,0-4.169,0.366-6.184,1.007
			c0,0.458,0.229,1.695,0.411,2.52c0.505,2.428,0.596,3.206,0.046,3.482l-0.092,0.045h-0.091c-0.412,0-0.596-0.275-1.97-2.657
			c-0.412-0.732-0.962-1.695-1.236-2.061c-3.619,1.969-6.55,5.131-8.245,8.886c0.138,0.137,0.413,0.366,0.55,0.504
			c0.687,0.595,1.1,0.915,0.916,1.328c-0.045,0.092-0.182,0.32-0.549,0.32c-0.229,0-0.595-0.091-1.007-0.183
			c-0.229-0.046-0.458-0.092-0.641-0.138C0.32,175.469,0,177.484,0,179.5c0,1.236,0.138,2.475,0.367,3.665
			c0.458-0.047,1.328-0.138,2.198-0.274c1.054-0.138,2.016-0.275,2.474-0.275c0.367,0,0.596,0.138,0.642,0.367
			c0.138,0.55-0.412,0.777-2.703,1.603c-0.641,0.229-1.603,0.597-2.015,0.779c1.145,3.481,3.206,6.504,6.092,8.794
			c0.091-0.045,0.229-0.092,0.367-0.139c0.458-0.183,0.87-0.319,1.19-0.09c0.321,0.229,0.275,0.687,0.183,1.145
			c-0.091,0.137-0.091,0.273-0.091,0.365c0.778,0.504,1.604,0.963,2.428,1.328c0.274,0.139,0.595,0.276,0.87,0.368
			c0.275,0.091,0.504,0.183,0.779,0.274c2.014,0.688,4.076,1.054,6.229,1.054c2.886,0,5.635-0.642,8.245-1.879
			c-0.138-0.458-0.458-1.375-0.687-2.017c-0.871-2.289-1.008-2.747-0.55-3.022l0.091-0.045h0.137c0.366,0,0.596,0.229,1.97,2.198
			c0.412,0.55,0.962,1.328,1.237,1.695c3.664-2.429,6.412-6,7.695-10.215c-0.092-0.138-0.32-0.322-0.504-0.412
			c-0.503-0.412-0.962-0.78-0.824-1.237c0.091-0.458,0.687-0.55,1.328-0.688c0.183-0.046,0.458-0.09,0.596-0.136
			c0.183-1.056,0.274-2.108,0.274-3.161C38.019,177.529,37.698,175.561,37.103,173.636z M18.964,186.049
			c-1.237,0-2.428-0.32-3.436-0.961c-0.138,0.092-0.321,0.182-0.458,0.273c-0.55,0.367-0.779,0.504-1.007,0.504h-0.138l-0.138-0.092
			c-0.413-0.319-0.137-0.824,0.138-1.375c0.045-0.138,0.138-0.319,0.229-0.457c-1.1-1.189-1.696-2.748-1.696-4.396
			c0-1.054,0.276-2.107,0.779-3.07c-0.046-0.092-0.092-0.274-0.138-0.366c-0.183-0.458-0.274-0.779-0.091-1.053
			c0.046-0.092,0.229-0.275,0.549-0.275c0.184,0,0.367,0.046,0.55,0.138c0.046,0,0.137,0.046,0.229,0.046
			c1.236-1.283,2.931-2.016,4.718-2.016c0.961,0,1.924,0.229,2.793,0.641c0.092,0.046,0.276,0.046,0.458,0.046
			c0.321,0,0.687,0.046,0.963,0.229c0.274,0.229,0.411,0.55,0.503,0.871c0.046,0.137,0.091,0.32,0.184,0.412
			c1.099,1.191,1.695,2.749,1.695,4.397C25.513,183.118,22.583,186.049,18.964,186.049z"/>
	</g>
</g>
<path fill="#79A164" d="M48.433,325.392c-0.287-0.415-0.646-0.771-0.992-1.137c-0.139-0.145-0.324-0.297-0.389-0.493
	c-0.074-0.216-0.098-0.449-0.146-0.671c-0.094-0.439-0.26-0.848-0.617-1.139c-0.756-0.617-1.814-0.689-2.744-0.774
	c-0.527-0.05-1.062-0.091-1.578-0.214c-0.232-0.057-0.463-0.131-0.68-0.238c-0.109-0.055-0.275-0.125-0.281-0.27
	c-0.006-0.154,0.084-0.312,0.135-0.455c0.051-0.147,0.092-0.303,0.082-0.459c-0.021-0.389-0.387-0.584-0.713-0.705
	c-0.746-0.275-1.602-0.228-2.377-0.135c-0.766,0.092-1.518,0.26-2.266,0.442c-0.1,0.024-0.199,0.051-0.301,0.076
	c-0.029-0.063-0.059-0.125-0.09-0.187c-0.055-0.107-0.133-0.228-0.092-0.354c0.033-0.102,0.109-0.189,0.17-0.275
	c0.281-0.396,0.723-0.656,1.145-0.877c0.486-0.254,1.002-0.451,1.482-0.717c0.424-0.235,0.824-0.544,0.93-1.042
	c0.109-0.504-0.066-1.035-0.289-1.481c-0.117-0.238-0.26-0.463-0.371-0.701c-0.059-0.125-0.111-0.254-0.146-0.389
	c-0.016-0.059-0.027-0.119-0.035-0.181c-0.004-0.031-0.008-0.062-0.012-0.093c0-0.01,0-0.105-0.006-0.039
	c0.002-0.023,0-0.047,0.002-0.071c0.002,0.001,0.004,0.003,0.004,0.006c0.031-0.067,0.072-0.132,0.121-0.192
	c0.148-0.191,0.348-0.344,0.531-0.502c0.201-0.172,0.404-0.349,0.568-0.558c0.287-0.364,0.432-0.876,0.186-1.3
	c-0.441-0.764-1.443-0.848-2.234-0.835c-0.291,0.005-0.584,0.026-0.875,0.045c-0.15,0.008-0.303,0.021-0.455,0.017
	c-0.139-0.004-0.277-0.021-0.416-0.027c-0.555-0.029-1.08,0.062-1.596,0.269c-0.516,0.208-1,0.492-1.488,0.753
	c-0.254,0.137-0.508,0.27-0.766,0.4c-0.238,0.123-0.484,0.238-0.744,0.307c-0.238-0.029-0.475-0.171-0.689-0.265
	c-0.236-0.104-0.488-0.212-0.748-0.22c-0.25-0.008-0.492,0.068-0.713,0.184c-0.209,0.109-0.406,0.271-0.627,0.354
	c-0.195,0.008-0.383-0.045-0.574-0.062c-0.182-0.017-0.367-0.007-0.543,0.037c-0.25,0.065-0.459,0.241-0.646,0.411
	c-0.197,0.178-0.385,0.367-0.574,0.552c-0.396,0.38-0.797,0.761-1.25,1.073c-0.199,0.136-0.445,0.311-0.689,0.341
	c-0.238,0.03-0.51-0.106-0.732-0.185c-0.219-0.074-0.449-0.149-0.683-0.14c-0.25,0.011-0.457,0.152-0.651,0.3
	c-0.395,0.301-0.736,0.682-1.038,1.073c-0.295,0.382-0.554,0.792-0.777,1.22c-0.451,0.861-0.762,1.792-0.968,2.741
	c-0.023,0.111-0.041,0.222-0.062,0.333c-0.07-0.027-0.138-0.059-0.21-0.078c-0.267-0.076-0.544-0.121-0.82-0.154
	c-0.145-0.019-0.289-0.029-0.433-0.043c-0.094-0.01-0.228-0.019-0.309-0.039c-0.036-0.064-0.112-0.127-0.157-0.182
	c-0.07-0.085-0.142-0.169-0.22-0.245c-0.149-0.146-0.322-0.268-0.519-0.342c-0.411-0.157-0.806-0.028-1.189,0.146
	c-0.752,0.342-1.56,0.785-2.416,0.726c-0.131-0.009-0.259-0.032-0.371-0.104c-0.094-0.062-0.173-0.144-0.254-0.22
	c-0.179-0.166-0.382-0.303-0.605-0.401c-0.493-0.221-1.049-0.227-1.58-0.205c-1.087,0.046-2.174,0.276-3.194,0.654
	c-0.902,0.336-1.787,0.828-2.401,1.586c-0.593,0.73-0.835,1.698-0.704,2.625c0.066,0.465,0.221,0.92,0.472,1.317
	c0.141,0.224,0.31,0.428,0.496,0.617c-0.015,0.016-0.032,0.034-0.047,0.048c-0.142,0.143-0.275,0.294-0.396,0.455
	c-0.168,0.223-0.301,0.504-0.561,0.633c-0.19,0.094-0.407,0.139-0.613,0.182c-0.213,0.043-0.427,0.082-0.64,0.121
	c-0.323,0.062-0.646,0.131-0.96,0.229c-0.594,0.188-1.22,0.52-1.42,1.155c-0.111,0.353-0.089,0.767,0.042,1.111
	c0.118,0.311,0.35,0.549,0.647,0.692c0.679,0.329,1.453,0.183,2.167,0.346c0.427,0.099,0.705,0.433,0.902,0.804
	c0.177,0.334,0.394,0.594,0.748,0.748c0.455,0.198,0.968,0.178,1.457,0.174c-0.141,0.099-0.275,0.205-0.39,0.332
	c-0.247,0.278-0.388,0.621-0.487,0.976c-0.069,0.25-0.117,0.504-0.185,0.753c-0.044,0.17-0.094,0.391-0.245,0.499
	c-0.37,0.271-0.809,0.454-1.221,0.651c-0.34,0.164-0.721,0.322-1.016,0.556c-0.291,0.229-0.421,0.598-0.445,0.958
	c-0.032,0.495,0.13,1.061,0.559,1.35c0.27,0.196,0.647,0.252,0.967,0.283c0.347,0.036,0.696,0.038,1.044,0.031
	c0.161-0.002,0.326-0.016,0.487-0.006c-0.003,0.002-0.007,0.002-0.01,0c0.074,0.017,0.139,0.07,0.196,0.115
	c0.101,0.078,0.196,0.162,0.297,0.237c0.207,0.159,0.437,0.286,0.691,0.347c0.525,0.125,1.021-0.056,1.495-0.27
	c0.484-0.218,0.958-0.447,1.47-0.592c0.49-0.139,0.998-0.209,1.506-0.211c0.164-0.002,0.32,0.044,0.472,0.101
	c0.257,0.097,0.502,0.226,0.743,0.356c0.484,0.268,0.951,0.57,1.451,0.81c0.331,0.159,0.666,0.267,1.034,0.263
	c0.536-0.002,1.058-0.136,1.561-0.312c0.507-0.179,0.995-0.401,1.495-0.599c0.465-0.185,0.947-0.355,1.452-0.365
	c0.458-0.01,0.92,0.162,1.252,0.479c0.091,0.086,0.173,0.182,0.244,0.286c0.072,0.108,0.084,0.234,0.111,0.36
	c0.061,0.289,0.122,0.578,0.183,0.867c0.122,0.578,0.241,1.156,0.359,1.734c0.173,0.852,0.346,1.705,0.487,2.562
	c0.045,0.275,0.091,0.549,0.094,0.826c0.005,0.436-0.021,0.871-0.048,1.306l-0.2,2.42c-0.016,0.153-0.031,0.308-0.046,0.461
	c-0.122,1.173-0.268,2.343-0.445,3.509c-0.175,1.152-0.375,2.305-0.662,3.436c-0.131,0.516-0.271,1.052-0.508,1.529
	c-0.062,0.125-0.12,0.246-0.085,0.392c0.054,0.218,0.258,0.321,0.46,0.366c0.443,0.092,0.911,0.068,1.361,0.058
	c0.396-0.01,0.789-0.044,1.183-0.087c-0.016,0.084-0.031,0.168-0.047,0.252c-0.008,0.104-0.01,0.186,0.053,0.282
	c0.104,0.155,0.318,0.208,0.488,0.25c0.254,0.062,0.518,0.099,0.777,0.122c0.137,0.013,0.312,0.043,0.451,0.014
	c0.113-0.014,0.215-0.086,0.295-0.164c0.174-0.171,0.297-0.396,0.404-0.613c0.283,0.25,0.766,0.207,1.113,0.201
	c0.521-0.009,1.041,0.012,1.545-0.132c0.1-0.028,0.197-0.062,0.293-0.099c0.045-0.02,0.078,0.066,0.104,0.103
	c0.023,0.033,0.049,0.065,0.074,0.099c0.109,0.133,0.271,0.187,0.434,0.211c0.479,0.07,1.008-0.006,1.465-0.156
	c0.086-0.028,0.174-0.059,0.26-0.092c0.062-0.022,0.111-0.086,0.15-0.137c0.01-0.016,0.059-0.104,0.051-0.099
	c0.012-0.036,0.016-0.074,0.02-0.112c0.004-0.191-0.045-0.39-0.078-0.578c-0.051-0.285-0.104-0.568-0.16-0.852
	c-0.07-0.362-0.143-0.723-0.215-1.084c-0.1-0.494-0.199-0.988-0.301-1.483c-0.152-0.764-0.307-1.53-0.459-2.295
	c-0.086-0.422-0.17-0.843-0.254-1.263c-0.062-0.305-0.121-0.608-0.18-0.912c-0.057-0.291-0.113-0.583-0.168-0.873
	c-0.014-0.07-0.027-0.141-0.041-0.209c-0.006-0.035-0.014-0.07-0.021-0.105l-0.512-2.849c-0.049-0.292-0.094-0.582-0.137-0.875
	c-0.041-0.272-0.059-0.547-0.08-0.821c-0.057-0.729-0.109-1.459-0.156-2.188c-0.045-0.737-0.094-1.474-0.139-2.211
	c-0.051-0.869-0.104-1.738-0.154-2.606c0.518,0.19,0.945,0.621,1.344,0.988c0.385,0.355,0.771,0.755,1.238,1.003
	c0.168,0.089,0.34,0.144,0.527,0.164c0.508,0.058,1.02-0.011,1.52-0.09c0.371-0.06,0.752-0.151,1.129-0.12
	c0.424,0.035,0.832,0.316,1.17,0.557c0.367,0.262,0.711,0.566,1.104,0.789c0.221,0.125,0.477,0.221,0.734,0.176
	c0.311-0.057,0.584-0.281,0.783-0.528c0.154-0.195,0.279-0.41,0.418-0.616c0.064-0.096,0.139-0.214,0.246-0.268
	c0.371-0.182,0.803-0.241,1.209-0.287c0.037-0.004,0.074-0.004,0.109-0.006c0.18,0.15,0.359,0.303,0.541,0.447
	c0.41,0.324,0.852,0.664,1.365,0.803c0.48,0.133,0.965,0,1.297-0.377c0.324-0.367,0.418-0.849,0.326-1.321
	c-0.1-0.505-0.361-0.966-0.619-1.405c-0.248-0.42-0.57-0.859-0.658-1.348c-0.051-0.327,0.156-0.698,0.125-1.051
	c-0.027-0.328-0.215-0.627-0.4-0.887c-0.314-0.435-0.707-0.812-1.107-1.166c-0.363-0.318-0.744-0.617-1.135-0.898
	c0.025-0.019,0.053-0.036,0.078-0.055c0.188-0.115,0.381-0.224,0.58-0.32c0.699-0.34,1.438-0.482,2.207-0.553
	c0.955-0.086,1.961-0.207,2.719-0.863c0.404-0.354,0.723-0.797,1.066-1.207c0.131-0.156,0.273-0.356,0.451-0.461
	c0.18-0.104,0.389-0.162,0.588-0.223c0.459-0.143,0.93-0.256,1.375-0.44c0.332-0.138,0.719-0.341,0.844-0.706
	C48.878,326.13,48.651,325.708,48.433,325.392"/>
</svg>
